<?xml version="1.0" standalone="no"?>
<!DOCTYPE svg PUBLIC "-//W3C//DTD SVG 20010904//EN"
 "http://www.w3.org/TR/2001/REC-SVG-20010904/DTD/svg10.dtd">
<svg version="1.0" xmlns="http://www.w3.org/2000/svg"
 width="213.000000pt" height="213.000000pt" viewBox="0 0 213.000000 213.000000"
 preserveAspectRatio="xMidYMid meet">
<metadata>
Created by potrace 1.11, written by Peter Selinger 2001-2013
</metadata>
<g transform="translate(0.000000,213.000000) scale(0.100000,-0.100000)"
fill="#000000" stroke="none">
<path d="M47 2110 c-15 -12 -31 -38 -37 -58 -6 -24 -10 -366 -10 -987 0 -903
1 -952 19 -991 36 -79 -32 -74 1051 -74 870 0 965 2 996 16 68 32 64 -30 64
1064 l0 992 -29 29 -29 29 -1000 0 c-992 0 -1000 0 -1025 -20z m1463 -535 l0
-115 -240 -331 c-132 -182 -240 -335 -240 -340 0 -5 102 -9 250 -9 l250 0 0
-145 0 -145 -470 0 -470 0 0 119 0 119 240 330 c132 182 240 333 240 336 0 4
-108 6 -240 6 l-240 0 0 145 0 145 460 0 460 0 0 -115z"/>
</g>
</svg>
