<svg width="64" height="64" xmlns="http://www.w3.org/2000/svg">
 <g>
  <ellipse fill="#ffffff" fill-opacity="0.8" stroke="#000" stroke-width="0" cx="32" cy="32" id="svg_2" rx="32" ry="32"/>
  <path stroke="null" fill="#2b2944" d="m57.38185,51.67857c0.0595,-0.61906 -10.09134,-4.39807 -14.3463,-5.82976c-1.02645,-0.35961 -2.06937,-0.75161 -3.0074,-1.30939c-0.83747,-0.49756 -1.15185,-1.51808 -1.34637,-2.4144c-0.08585,-0.47408 -0.1385,-0.96058 -0.16577,-1.43911c3.08542,-4.22067 5.13211,-11.10885 5.13211,-16.75689c0,-8.81445 -4.98052,-11.27083 -11.12329,-11.27083c-6.14399,0 -11.12343,2.45273 -11.12343,11.26719c0,5.85012 2.19423,13.02635 5.46553,17.19519c-0.02983,0.3291 -0.06898,0.6582 -0.12824,0.98582c-0.19492,0.89619 -0.50891,1.89766 -1.34583,2.39509c-0.93911,0.55791 -1.9819,0.91198 -3.00848,1.27159c-4.25496,1.43155 -14.02421,5.64324 -14.42948,6.28437c0.06972,1.05682 9.46882,12.46623 24.58593,12.19888c11.08918,0.04074 20.67363,-6.29861 24.78083,-12.51758l0.06019,-0.06019z" id="svg_1"/>
 </g>
</svg>
